<svg width="338" height="284" fill="none" xmlns="http://www.w3.org/2000/svg"><g filter="url(#a)" shape-rendering="crispEdges" opacity=".8"><path d="M46.243 86.467c0-13.199 10.443-23.508 23.2-23.033l215.941 8.035c10.451.392 18.845 10.26 18.845 22.044v138.711c0 11.783-8.394 21.735-18.845 22.226l-215.94 10.143c-12.758.599-23.2-9.61-23.2-22.809V86.467Z" fill="#C5E7FE" fill-opacity=".8"/><path d="M46.743 86.467c0-12.929 10.221-22.998 22.682-22.534l215.941 8.036c10.128.38 18.363 9.972 18.363 21.544v138.711c0 11.573-8.237 21.25-18.368 21.727l-215.94 10.142c-12.46.586-22.678-9.382-22.678-22.309V86.467Z" stroke="#9BD4FF" stroke-opacity=".8"/></g><path d="M138.237 88.982c0-4.23 3.231-7.561 7.203-7.445l139.944 4.28c3.498.109 6.321 3.398 6.321 7.346v5.362c0 3.948-2.823 7.096-6.321 7.021l-139.944-3.015c-3.972-.083-7.203-3.59-7.203-7.82v-5.745.016ZM63.689 86.942c0-4.364 3.44-7.803 7.67-7.67l52.346 1.6c4.031.124 7.295 3.663 7.295 7.91v149.862c0 4.247-3.256 7.82-7.295 7.978l-52.346 2.115c-4.23.175-7.67-3.231-7.67-7.595v-154.2Z" fill="#fff" fill-opacity=".7"/><path d="M145.44 125.11c0-4.568 3.469-8.208 7.739-8.145l74.867 1.117c4 .063 7.244 3.676 7.244 8.073v27.883c0 4.397-3.235 7.973-7.244 7.991l-74.867.244c-4.27.018-7.739-3.676-7.739-8.235V125.11Z" fill="#fff"/><path opacity=".5" d="M154.384 131.269c0-2.098 1.59-3.789 3.556-3.764l52.055.566c1.874.017 3.389 1.699 3.389 3.748 0 2.048-1.515 3.697-3.389 3.681l-52.055-.392c-1.966-.016-3.556-1.732-3.556-3.83v-.009ZM154.384 146.483c0-2.098 1.59-3.797 3.556-3.789l34.967.15c1.899 0 3.439 1.691 3.439 3.748 0 2.065-1.54 3.73-3.439 3.73l-34.967-.033c-1.966 0-3.556-1.707-3.556-3.806Z" fill="#C8C9CD" fill-opacity=".68"/><path d="M181.052 180.194c0-4.292 3.215-7.801 7.163-7.844l80.997-.793c3.672-.034 6.637 3.276 6.637 7.396v50.355c0 4.12-2.965 7.576-6.637 7.714l-80.997 3.138c-3.948.155-7.163-3.207-7.163-7.499v-52.467Z" fill="#fff"/><path opacity=".5" d="M192.907 187.721c0-2.065 1.541-3.764 3.439-3.789l50.349-.699c1.815-.025 3.281 1.591 3.281 3.597 0 2.016-1.466 3.673-3.281 3.706l-50.349.866c-1.898.034-3.439-1.615-3.439-3.681ZM192.907 202.686c0-2.065 1.541-3.772 3.439-3.814l33.819-.691c1.84-.042 3.322 1.574 3.322 3.606s-1.49 3.706-3.322 3.755l-33.819.808c-1.898.042-3.439-1.59-3.439-3.656v-.008ZM192.907 225.129c0-2.066 1.541-3.789 3.439-3.848l50.349-1.532c1.815-.058 3.281 1.532 3.281 3.548 0 2.015-1.466 3.697-3.281 3.755l-50.349 1.699c-1.898.067-3.439-1.557-3.439-3.622Z" fill="#C8C9CD" fill-opacity=".68"/><g filter="url(#b)" shape-rendering="crispEdges"><path d="M114.466 11.746c4.522-2.465 10.076-2.116 14.556.907l25.966 17.513c4.372 2.948 7.053 8.086 7.053 13.482v31.678c0 5.405-2.681 10.31-7.053 12.875l-25.966 15.28c-4.488 2.64-10.034 2.515-14.556-.341l-26.89-16.98c-4.646-2.931-7.52-8.194-7.52-13.79V39.56c0-5.597 2.874-10.61 7.52-13.141l26.89-14.673Z" fill="#9BD4FF" fill-opacity=".8"/><path d="m128.743 13.068 25.965 17.513c4.23 2.852 6.833 7.832 6.833 13.067v31.678c0 5.242-2.6 9.975-6.806 12.443h-.001l-25.965 15.281v.001c-4.322 2.541-9.668 2.426-14.036-.334l-26.89-16.98c-4.498-2.837-7.286-7.94-7.286-13.367V39.56c0-5.426 2.783-10.264 7.259-12.702l26.889-14.673c4.348-2.37 9.702-2.042 14.038.883Z" stroke="#9BD4FF" stroke-opacity=".8"/></g><path fill-rule="evenodd" clip-rule="evenodd" d="m102.216 41.45 38.79 1.923c.982.05 1.782.9 1.782 1.9 0 .199-.034.399-.1.59l-1.149 3.315a1.692 1.692 0 0 1-1.683 1.14l-36.457-1.698a1.95 1.95 0 0 1-1.741-1.324l-1.182-3.481c-.333-.983.175-2.007 1.141-2.29a1.82 1.82 0 0 1 .599-.075Zm6.479 13.44 26.015 1.141c.991.042 1.79.891 1.79 1.899 0 .217-.041.433-.116.633l-1.249 3.322c-.267.7-.933 1.141-1.682 1.108l-23.559-.966a1.925 1.925 0 0 1-1.724-1.299l-1.207-3.473c-.342-.974.158-2.007 1.116-2.298.2-.058.408-.092.616-.075v.008Zm8.136 13.466 9.86.375a1.901 1.901 0 0 1 1.807 1.89 1.9 1.9 0 0 1-.075.525l-1.008 3.347a1.731 1.731 0 0 1-1.732 1.241l-7.728-.275a1.892 1.892 0 0 1-1.724-1.315l-1.124-3.448c-.316-.974.2-1.99 1.158-2.273.183-.059.383-.084.574-.075l-.008.008Z" fill="#fff" fill-opacity=".9"/><g filter="url(#c)" shape-rendering="crispEdges"><path d="M287.884 95.747c0 .002.003.003.004.002 4.338-2.722 9.655-2.591 13.955.344l14.569 9.937c4.237 2.891 6.836 8.108 6.836 13.705v19.107c0 5.596-2.599 10.758-6.836 13.557l-14.569 9.622c-4.301 2.845-9.62 2.863-13.959.037l-14.92-9.715c-4.404-2.863-7.123-8.163-7.123-13.898v-19.569c0-5.726 2.719-10.971 7.123-13.742l14.916-9.39c.002 0 .004.001.004.003Z" fill="#9BD4FF" fill-opacity=".8"/><path d="m301.561 96.506 14.569 9.937h.001c4.085 2.788 6.617 7.843 6.617 13.292v19.107c0 5.449-2.531 10.445-6.611 13.139l-14.57 9.623c-4.135 2.735-9.238 2.753-13.41.035l-14.921-9.715c-4.247-2.761-6.895-7.896-6.895-13.479v-19.569c0-5.574 2.648-10.65 6.889-13.319l14.845-9.344a.519.519 0 0 0 .079-.04c4.166-2.614 9.268-2.493 13.407.333Z" stroke="#9BD4FF" stroke-opacity=".8"/></g><path d="M291.6 116.314v-2.38c0-.877-.563-1.6-1.262-1.619-.653-.019-1.197.578-1.279 1.368v2.583c0 .877.572 1.59 1.27 1.609.699.019 1.271-.684 1.271-1.561ZM296.572 126.191l-1.878-.029c-.381 0-.69.366-.69.819v2.264c0 .453.309.829.69.829l1.878.019c.382 0 .69-.366.69-.819v-2.255c0-.452-.308-.828-.69-.828ZM291.681 126.123l-1.887-.029c-.381 0-.69.357-.69.819v2.265c0 .453.309.829.69.838l1.887.019c.382 0 .69-.366.69-.819v-2.264c0-.453-.308-.829-.69-.838v.009ZM289.794 131.972l1.887.019c.382 0 .69.376.69.829v2.265c0 .453-.308.819-.69.819l-1.887-.02c-.381 0-.69-.375-.69-.828v-2.265c0-.453.309-.819.69-.819ZM296.572 132.049l-1.878-.019c-.381 0-.69.366-.69.819v2.265c0 .452.309.828.69.828l1.878.02c.382 0 .69-.367.69-.82v-2.254c0-.453-.308-.829-.69-.829v-.01ZM301.445 126.258l-1.878-.029v.01c-.372-.01-.681.356-.681.809v2.255c0 .453.3.829.681.829l1.878.019c.372.01.681-.356.681-.809v-2.255c0-.453-.309-.829-.681-.829Z" fill="#fff" fill-opacity=".9"/><path fill-rule="evenodd" clip-rule="evenodd" d="M303.315 115.871v1.079c0 1.773-1.144 3.199-2.568 3.18-1.425-.02-2.577-1.484-2.577-3.267v-1.079l-5.254-.087v1.079c0 1.783-1.162 3.219-2.596 3.19-1.433-.029-2.595-1.494-2.595-3.286v-1.079l-1.996-.039c-1.779-.038-3.222 1.725-3.222 3.941 0 .058.003.114.005.169a4.6 4.6 0 0 1 .004.169v21.652c0 1.195.781 2.178 1.743 2.178l22.468.125c.943.009 1.706-.944 1.706-2.13v-21.421c.036-2.254-1.353-4.172-3.149-4.336l-1.969-.038Zm-17.323 23.492 19.029.135v-17.027l-19.029-.279v17.171Z" fill="#fff" fill-opacity=".9"/><path d="M301.935 114.194v2.235c0 .82-.535 1.484-1.189 1.475-.662-.01-1.188-.694-1.188-1.513v-2.236c0-.828.535-1.484 1.188-1.474.654.01 1.189.684 1.189 1.513Z" fill="#fff" fill-opacity=".9"/><path d="M32.503 150.336c0 .002.002.003.003.002a15.454 15.454 0 0 1 15.686.052l23 13.632c4.722 2.798 7.62 7.978 7.62 13.591v27.031c0 5.613-2.898 10.876-7.62 13.799l-23 14.273c-4.83 2.998-10.818 3.19-15.69.483L8.745 220.017c-4.996-2.773-8.077-8.053-8.077-13.849v-27.922c0-5.796 3.089-11.167 8.077-14.074L32.5 150.334c.002-.001.004 0 .004.002Z" fill="#0075FF" fill-opacity=".78"/><path d="M47.937 150.82a14.955 14.955 0 0 0-15.18-.05l-.25-.432c-.002.001-.004 0-.004-.002s-.002-.003-.004-.002l15.438.486Zm0 0 23 13.633.255-.431-.255.431c4.565 2.705 7.375 7.718 7.375 13.16v27.031c0 5.443-2.811 10.543-7.383 13.374l-23.001 14.273.264.425-.264-.425c-4.68 2.905-10.474 3.087-15.183.471L8.987 219.579c-4.835-2.683-7.82-7.794-7.82-13.411v-27.922a15.808 15.808 0 0 1 7.829-13.642l23.684-13.797 15.257.013Zm-15.187-.054Z" stroke="#fff" stroke-opacity=".18"/><path fill-rule="evenodd" clip-rule="evenodd" d="M46.327 203.678v-6.545l5.904-.1v-17.571l-23.792.216v17.746l5.996-.1v6.579l11.9-.225h-.008Zm-19.903-29.055 27.739-.191c1.623-.008 2.93 1.324 2.93 2.981v28.031c0 1.657-1.315 3.031-2.93 3.064l-27.74.583c-1.665.033-3.005-1.299-3.005-2.981v-28.43c0-1.683 1.349-3.057 3.006-3.065v.008Zm9.31 13.008 2.781 2.898 6.929-7.245 1.973 2.998-8.902 9.194-4.971-4.98 2.19-2.857v-.008Z" fill="#fff" fill-opacity=".9"/><path d="M249.967 256.2c0-14.099 10.21-25.857 22.668-26.274l31.594-1.041c11.967-.391 21.577 10.327 21.577 23.934 0 13.615-9.61 25.182-21.577 25.857l-31.594 1.773c-12.467.7-22.668-10.159-22.668-24.249Z" fill="#FAA72C" fill-opacity=".78"/><path d="M272.651 230.426c-12.138.406-22.184 11.892-22.184 25.774 0 13.863 10.018 24.43 22.14 23.75l31.594-1.774c11.647-.656 21.105-11.948 21.105-25.357 0-13.393-9.44-23.814-21.06-23.434l-31.595 1.041Zm0 0 31.595-1.041-31.595 1.041Z" stroke="#fff" stroke-opacity=".18"/><g filter="url(#d)"><path d="M285.384 254.626c0 7.928-5.688 14.64-12.749 15.006-7.104.366-12.9-5.846-12.9-13.865 0-8.02 5.796-14.74 12.9-15.007 7.061-.266 12.749 5.946 12.749 13.866Z" fill="#fff" fill-opacity=".9" shape-rendering="crispEdges"/></g><defs><filter id="a" x="32.243" y="53.418" width="285.986" height="229.2" filterUnits="userSpaceOnUse" color-interpolation-filters="sRGB"><feFlood flood-opacity="0" result="BackgroundImageFix"/><feColorMatrix in="SourceAlpha" values="0 0 0 0 0 0 0 0 0 0 0 0 0 0 0 0 0 0 127 0" result="hardAlpha"/><feOffset dy="4"/><feGaussianBlur stdDeviation="7"/><feComposite in2="hardAlpha" operator="out"/><feColorMatrix values="0 0 0 0 0 0 0 0 0 0 0 0 0 0 0 0 0 0 0.02 0"/><feBlend in2="BackgroundImageFix" result="effect1_dropShadow_13414_12768"/><feBlend in="SourceGraphic" in2="effect1_dropShadow_13414_12768" result="shape"/></filter><filter id="b" x="66.057" y=".115" width="109.984" height="123.261" filterUnits="userSpaceOnUse" color-interpolation-filters="sRGB"><feFlood flood-opacity="0" result="BackgroundImageFix"/><feColorMatrix in="SourceAlpha" values="0 0 0 0 0 0 0 0 0 0 0 0 0 0 0 0 0 0 127 0" result="hardAlpha"/><feOffset dy="4"/><feGaussianBlur stdDeviation="7"/><feComposite in2="hardAlpha" operator="out"/><feColorMatrix values="0 0 0 0 0 0 0 0 0 0 0 0 0 0 0 0 0 0 0.02 0"/><feBlend in2="BackgroundImageFix" result="effect1_dropShadow_13414_12768"/><feBlend in="SourceGraphic" in2="effect1_dropShadow_13414_12768" result="shape"/></filter><filter id="c" x="251.841" y="83.796" width="85.407" height="98.37" filterUnits="userSpaceOnUse" color-interpolation-filters="sRGB"><feFlood flood-opacity="0" result="BackgroundImageFix"/><feColorMatrix in="SourceAlpha" values="0 0 0 0 0 0 0 0 0 0 0 0 0 0 0 0 0 0 127 0" result="hardAlpha"/><feOffset dy="4"/><feGaussianBlur stdDeviation="7"/><feComposite in2="hardAlpha" operator="out"/><feColorMatrix values="0 0 0 0 0 0 0 0 0 0 0 0 0 0 0 0 0 0 0.02 0"/><feBlend in2="BackgroundImageFix" result="effect1_dropShadow_13414_12768"/><feBlend in="SourceGraphic" in2="effect1_dropShadow_13414_12768" result="shape"/></filter><filter id="d" x="249.735" y="234.752" width="45.649" height="48.895" filterUnits="userSpaceOnUse" color-interpolation-filters="sRGB"><feFlood flood-opacity="0" result="BackgroundImageFix"/><feColorMatrix in="SourceAlpha" values="0 0 0 0 0 0 0 0 0 0 0 0 0 0 0 0 0 0 127 0" result="hardAlpha"/><feOffset dy="4"/><feGaussianBlur stdDeviation="5"/><feComposite in2="hardAlpha" operator="out"/><feColorMatrix values="0 0 0 0 0 0 0 0 0 0 0 0 0 0 0 0 0 0 0.05 0"/><feBlend in2="BackgroundImageFix" result="effect1_dropShadow_13414_12768"/><feBlend in="SourceGraphic" in2="effect1_dropShadow_13414_12768" result="shape"/></filter></defs></svg>