<svg width="29" height="28" viewBox="0 0 29 28" fill="none" xmlns="http://www.w3.org/2000/svg">
<path fill-rule="evenodd" clip-rule="evenodd" d="M16.5657 5.39673C16.5657 4.9457 16.2 4.58007 15.749 4.58008L9.37896 4.58016C7.63928 4.58018 6.229 5.99048 6.229 7.73016V20.2695C6.229 22.0093 7.63933 23.4196 9.37904 23.4195L15.749 23.4195C16.2 23.4194 16.5657 23.0538 16.5657 22.6028C16.5657 22.1517 16.2 21.7861 15.749 21.7861L9.37902 21.7862C8.54138 21.7862 7.86234 21.1072 7.86234 20.2695V7.73016C7.86234 6.89254 8.54136 6.2135 9.37898 6.21349L15.749 6.21341C16.2 6.21341 16.5657 5.84777 16.5657 5.39673ZM18.0704 8.75563C17.7515 9.07456 17.7515 9.59165 18.0704 9.91058L21.3429 13.1831L12.8136 13.1831C12.3626 13.1831 11.997 13.5487 11.997 13.9998C11.997 14.4508 12.3626 14.8164 12.8136 14.8164L21.3425 14.8164L18.0704 18.0885C17.7515 18.4075 17.7515 18.9246 18.0704 19.2435C18.3893 19.5624 18.9064 19.5624 19.2253 19.2435L23.8916 14.5772C24.0511 14.4177 24.1308 14.2086 24.1308 13.9996C24.1308 13.7905 24.0511 13.5814 23.8916 13.4219L19.2253 8.75563C18.9064 8.43671 18.3893 8.43671 18.0704 8.75563Z" fill="#0075FF"/>
</svg>
